# xmcd
#
# Track frame offsets: 
#        150
#        19794
#        36980
#        52987
#        71810
#        82567
#        102637
#        113535
#        128325
#        146475
#        160602
#        169660
#
# Disc length: 2430 seconds
#
# Revision: 0
# Processed by: cddbd v1.4b41PL3 Copyright (c) Steve Scherf et al.
# Submitted via: ExactAudioCopy v0.90a11
#
DISCID=8d097c0c
DTITLE=Amy Allison - Sad Girl
DYEAR=1900
DGENRE=
TTITLE0=Listless and Lonesome
TTITLE1=One Thing In Mind
TTITLE2=Sad Girl
TTITLE3=Everybody Thinks You're An Angel
TTITLE4=It's Not Wrong
TTITLE5=Family
TTITLE6=Shadow Of A Man
TTITLE7=Sad State Of Affairs
TTITLE8=Where Did You Go?
TTITLE9=Lost On You
TTITLE10=Do I Miss You?
TTITLE11=New Year's Eve
EXTD=
EXTT0=
EXTT1=
EXTT2=
EXTT3=
EXTT4=
EXTT5=
EXTT6=
EXTT7=
EXTT8=
EXTT9=
EXTT10=
EXTT11=
PLAYORDER=
